<svg xmlns="http://www.w3.org/2000/svg" xmlns:xlink="http://www.w3.org/1999/xlink" width="500" zoomAndPan="magnify" viewBox="0 0 375 374.999991" height="500" preserveAspectRatio="xMidYMid meet" version="1.0"><defs><clipPath id="85bc99353a"><path d="M 83 89 L 375 89 L 375 312.886719 L 83 312.886719 Z M 83 89 " clip-rule="nonzero"/></clipPath><clipPath id="605e70f964"><path d="M 0 62.386719 L 292 62.386719 L 292 286 L 0 286 Z M 0 62.386719 " clip-rule="nonzero"/></clipPath><clipPath id="6fd2304e88"><path d="M 0 62.386719 L 292 62.386719 L 292 108 L 0 108 Z M 0 62.386719 " clip-rule="nonzero"/></clipPath></defs><path fill="#ffffff" d="M 370.921875 296.910156 C 370.921875 303.371094 365.699219 308.605469 359.257812 308.605469 L 99.429688 308.605469 C 92.988281 308.605469 87.765625 303.371094 87.765625 296.910156 L 87.765625 104.988281 C 87.765625 98.527344 92.988281 93.296875 99.429688 93.296875 L 359.257812 93.296875 C 365.699219 93.296875 370.921875 98.527344 370.921875 104.988281 L 370.921875 296.910156 " fill-opacity="1" fill-rule="nonzero"/><g clip-path="url(#85bc99353a)"><path fill="#292626" d="M 370.921875 296.910156 L 366.878906 296.910156 C 366.878906 299.03125 366.039062 300.910156 364.664062 302.304688 C 363.253906 303.695312 361.378906 304.554688 359.257812 304.554688 L 99.429688 304.554688 C 97.308594 304.554688 95.433594 303.695312 94.042969 302.320312 C 92.648438 300.910156 91.808594 299.03125 91.808594 296.910156 L 91.808594 104.988281 C 91.808594 102.867188 92.648438 100.972656 94.042969 99.59375 C 95.433594 98.203125 97.308594 97.34375 99.429688 97.34375 L 359.257812 97.34375 C 361.378906 97.34375 363.253906 98.203125 364.664062 99.59375 C 366.039062 100.972656 366.878906 102.867188 366.878906 104.988281 L 366.878906 296.910156 L 374.96875 296.910156 L 374.96875 104.988281 C 374.984375 100.664062 373.203125 96.695312 370.375 93.863281 C 367.542969 91.011719 363.578125 89.246094 359.257812 89.246094 L 99.429688 89.246094 C 95.09375 89.246094 91.144531 91.011719 88.3125 93.863281 C 85.484375 96.695312 83.71875 100.664062 83.71875 104.988281 L 83.71875 296.910156 C 83.71875 301.25 85.484375 305.203125 88.3125 308.035156 C 91.144531 310.886719 95.09375 312.652344 99.429688 312.652344 L 359.257812 312.652344 C 363.578125 312.652344 367.542969 310.886719 370.375 308.035156 C 373.203125 305.203125 374.984375 301.25 374.96875 296.910156 L 370.921875 296.910156 " fill-opacity="1" fill-rule="nonzero"/></g><path fill="#8d6c9f" d="M 359.257812 93.296875 L 99.429688 93.296875 C 92.988281 93.296875 87.765625 98.527344 87.765625 104.988281 L 87.765625 130.320312 L 370.921875 130.320312 L 370.921875 104.988281 C 370.921875 98.527344 365.699219 93.296875 359.257812 93.296875 " fill-opacity="1" fill-rule="nonzero"/><path fill="#292626" d="M 359.257812 93.296875 L 359.257812 89.246094 L 99.429688 89.246094 C 95.09375 89.246094 91.144531 91.011719 88.3125 93.863281 C 85.484375 96.695312 83.71875 100.664062 83.71875 104.988281 L 83.71875 130.320312 C 83.71875 131.386719 84.140625 132.425781 84.902344 133.1875 C 85.644531 133.929688 86.695312 134.367188 87.765625 134.367188 L 370.921875 134.367188 C 371.992188 134.367188 373.042969 133.929688 373.785156 133.1875 C 374.546875 132.425781 374.96875 131.386719 374.96875 130.320312 L 374.96875 104.988281 C 374.984375 100.664062 373.203125 96.695312 370.375 93.863281 C 367.542969 91.011719 363.578125 89.246094 359.257812 89.246094 L 359.257812 97.34375 C 361.378906 97.34375 363.253906 98.203125 364.664062 99.59375 C 366.039062 100.972656 366.878906 102.867188 366.878906 104.988281 L 366.878906 126.269531 L 91.808594 126.269531 L 91.808594 104.988281 C 91.808594 102.867188 92.648438 100.972656 94.042969 99.59375 C 95.433594 98.203125 97.308594 97.34375 99.429688 97.34375 L 359.257812 97.34375 L 359.257812 93.296875 " fill-opacity="1" fill-rule="nonzero"/><path fill="#c7b4d1" d="M 235.675781 237.488281 L 120.667969 237.488281 L 120.667969 153.691406 L 235.675781 153.691406 L 235.675781 237.488281 " fill-opacity="1" fill-rule="nonzero"/><path fill="#292626" d="M 235.675781 237.488281 L 235.675781 233.4375 L 124.714844 233.4375 L 124.714844 157.738281 L 231.632812 157.738281 L 231.632812 237.488281 L 235.675781 237.488281 L 235.675781 233.4375 L 235.675781 237.488281 L 239.722656 237.488281 L 239.722656 153.691406 C 239.722656 152.636719 239.285156 151.585938 238.523438 150.839844 C 237.78125 150.078125 236.746094 149.640625 235.675781 149.640625 L 120.667969 149.640625 C 119.601562 149.640625 118.566406 150.078125 117.804688 150.839844 C 117.0625 151.585938 116.625 152.636719 116.625 153.691406 L 116.625 237.488281 C 116.625 238.539062 117.0625 239.59375 117.804688 240.339844 C 118.566406 241.097656 119.601562 241.535156 120.667969 241.535156 L 235.675781 241.535156 C 236.746094 241.535156 237.78125 241.097656 238.523438 240.339844 C 239.285156 239.59375 239.722656 238.539062 239.722656 237.488281 L 235.675781 237.488281 " fill-opacity="1" fill-rule="nonzero"/><path fill="#ffffff" d="M 287.253906 270.121094 C 287.253906 276.585938 282.011719 281.816406 275.570312 281.816406 L 15.742188 281.816406 C 9.300781 281.816406 4.070312 276.585938 4.070312 270.121094 L 4.070312 78.199219 C 4.070312 71.738281 9.300781 66.507812 15.742188 66.507812 L 275.570312 66.507812 C 282.011719 66.507812 287.253906 71.738281 287.253906 78.199219 L 287.253906 270.121094 " fill-opacity="1" fill-rule="nonzero"/><g clip-path="url(#605e70f964)"><path fill="#292626" d="M 287.253906 270.121094 L 283.191406 270.121094 C 283.191406 272.242188 282.351562 274.121094 280.976562 275.515625 C 279.566406 276.910156 277.691406 277.765625 275.570312 277.765625 L 15.742188 277.765625 C 13.621094 277.765625 11.746094 276.910156 10.355469 275.515625 C 8.960938 274.121094 8.105469 272.242188 8.105469 270.121094 L 8.105469 78.199219 C 8.105469 76.078125 8.960938 74.199219 10.355469 72.808594 C 11.746094 71.414062 13.621094 70.554688 15.742188 70.554688 L 275.570312 70.554688 C 277.691406 70.554688 279.566406 71.414062 280.976562 72.808594 C 282.351562 74.199219 283.191406 76.078125 283.191406 78.199219 L 283.191406 270.121094 L 291.296875 270.121094 L 291.296875 78.199219 C 291.296875 73.875 289.515625 69.910156 286.6875 67.074219 C 283.855469 64.222656 279.890625 62.457031 275.570312 62.457031 L 15.742188 62.457031 C 11.421875 62.457031 7.457031 64.222656 4.628906 67.074219 C 1.789062 69.910156 0.0234375 73.875 0.0234375 78.199219 L 0.0234375 270.121094 C 0.0234375 274.460938 1.789062 278.414062 4.628906 281.25 C 7.457031 284.097656 11.421875 285.863281 15.742188 285.863281 L 275.570312 285.863281 C 279.890625 285.863281 283.855469 284.097656 286.6875 281.25 C 289.515625 278.414062 291.296875 274.460938 291.296875 270.121094 L 287.253906 270.121094 " fill-opacity="1" fill-rule="nonzero"/></g><path fill="#c7b4d1" d="M 275.570312 66.507812 L 15.742188 66.507812 C 9.300781 66.507812 4.070312 71.738281 4.070312 78.199219 L 4.070312 103.53125 L 287.242188 103.53125 L 287.242188 78.199219 C 287.242188 71.738281 282.003906 66.507812 275.5625 66.507812 " fill-opacity="1" fill-rule="nonzero"/><g clip-path="url(#6fd2304e88)"><path fill="#292626" d="M 275.570312 66.507812 L 275.570312 62.457031 L 15.742188 62.457031 C 11.421875 62.457031 7.457031 64.222656 4.628906 67.074219 C 1.789062 69.910156 0.0234375 73.875 0.0234375 78.199219 L 0.0234375 103.53125 C 0.0234375 104.601562 0.453125 105.636719 1.207031 106.398438 C 1.957031 107.144531 3 107.578125 4.070312 107.578125 L 287.242188 107.578125 C 288.296875 107.578125 289.347656 107.144531 290.089844 106.398438 C 290.851562 105.636719 291.273438 104.601562 291.273438 103.53125 L 291.273438 78.199219 C 291.289062 73.875 289.507812 69.910156 286.675781 67.074219 C 283.847656 64.222656 279.882812 62.457031 275.5625 62.457031 L 275.5625 70.554688 C 277.683594 70.554688 279.558594 71.414062 280.96875 72.808594 C 282.34375 74.199219 283.183594 76.078125 283.183594 78.199219 L 283.183594 99.480469 L 8.097656 99.480469 L 8.097656 78.199219 C 8.097656 76.078125 8.953125 74.199219 10.347656 72.808594 C 11.738281 71.414062 13.613281 70.554688 15.734375 70.554688 L 275.5625 70.554688 L 275.5625 66.507812 " fill-opacity="1" fill-rule="nonzero"/></g><path fill="#c7b4d1" d="M 151.972656 210.683594 L 36.980469 210.683594 L 36.980469 126.902344 L 151.972656 126.902344 L 151.972656 210.683594 " fill-opacity="1" fill-rule="nonzero"/><path fill="#292626" d="M 151.972656 210.683594 L 151.972656 206.632812 L 41.027344 206.632812 L 41.027344 130.949219 L 147.929688 130.949219 L 147.929688 210.683594 L 151.972656 210.683594 L 151.972656 206.632812 L 151.972656 210.683594 L 156.019531 210.683594 L 156.019531 126.902344 C 156.019531 125.847656 155.597656 124.796875 154.835938 124.050781 C 154.09375 123.289062 153.042969 122.851562 151.972656 122.851562 L 36.980469 122.851562 C 35.914062 122.851562 34.878906 123.289062 34.117188 124.050781 C 33.375 124.796875 32.9375 125.847656 32.9375 126.902344 L 32.9375 210.683594 C 32.9375 211.753906 33.375 212.804688 34.117188 213.550781 C 34.878906 214.3125 35.914062 214.730469 36.980469 214.730469 L 151.972656 214.730469 C 153.042969 214.730469 154.09375 214.3125 154.835938 213.550781 C 155.597656 212.804688 156.019531 211.753906 156.019531 210.683594 L 151.972656 210.683594 " fill-opacity="1" fill-rule="nonzero"/><path fill="#292626" d="M 174.363281 130.949219 L 267.789062 130.949219 C 270.023438 130.949219 271.835938 129.152344 271.835938 126.902344 C 271.835938 124.667969 270.023438 122.851562 267.789062 122.851562 L 174.363281 122.851562 C 172.132812 122.851562 170.320312 124.667969 170.320312 126.902344 C 170.320312 129.152344 172.132812 130.949219 174.363281 130.949219 " fill-opacity="1" fill-rule="nonzero"/><path fill="#292626" d="M 174.363281 149.460938 L 267.789062 149.460938 C 270.023438 149.460938 271.835938 147.648438 271.835938 145.414062 C 271.835938 143.179688 270.023438 141.363281 267.789062 141.363281 L 174.363281 141.363281 C 172.132812 141.363281 170.320312 143.179688 170.320312 145.414062 C 170.320312 147.648438 172.132812 149.460938 174.363281 149.460938 " fill-opacity="1" fill-rule="nonzero"/><path fill="#292626" d="M 174.363281 167.972656 L 267.789062 167.972656 C 270.023438 167.972656 271.835938 166.160156 271.835938 163.925781 C 271.835938 161.691406 270.023438 159.875 267.789062 159.875 L 174.363281 159.875 C 172.132812 159.875 170.320312 161.691406 170.320312 163.925781 C 170.320312 166.160156 172.132812 167.972656 174.363281 167.972656 " fill-opacity="1" fill-rule="nonzero"/><path fill="#292626" d="M 174.363281 186.488281 L 267.789062 186.488281 C 270.023438 186.488281 271.835938 184.671875 271.835938 182.4375 C 271.835938 180.203125 270.023438 178.386719 267.789062 178.386719 L 174.363281 178.386719 C 172.132812 178.386719 170.320312 180.203125 170.320312 182.4375 C 170.320312 184.671875 172.132812 186.488281 174.363281 186.488281 " fill-opacity="1" fill-rule="nonzero"/><path fill="#292626" d="M 174.363281 205 L 267.789062 205 C 270.023438 205 271.835938 203.183594 271.835938 200.949219 C 271.835938 198.714844 270.023438 196.902344 267.789062 196.902344 L 174.363281 196.902344 C 172.132812 196.902344 170.320312 198.714844 170.320312 200.949219 C 170.320312 203.183594 172.132812 205 174.363281 205 " fill-opacity="1" fill-rule="nonzero"/></svg>