<svg xmlns="http://www.w3.org/2000/svg" xmlns:xlink="http://www.w3.org/1999/xlink" width="1280" zoomAndPan="magnify" viewBox="0 0 960 540.000001" height="720" preserveAspectRatio="xMidYMid meet" version="1.0"><defs><clipPath id="f5c393f991"><path d="M 0.886719 0 L 959.113281 0 L 959.113281 539 L 0.886719 539 Z M 0.886719 0 " clip-rule="nonzero"/></clipPath><clipPath id="a0c602f985"><path d="M 247.21875 0 L 712 0 L 712 538 L 247.21875 538 Z M 247.21875 0 " clip-rule="nonzero"/></clipPath></defs><g clip-path="url(#f5c393f991)"><path fill="#ffffff" d="M 0.886719 0 L 959.113281 0 L 959.113281 546.488281 L 0.886719 546.488281 Z M 0.886719 0 " fill-opacity="1" fill-rule="nonzero"/><path fill="#ffffff" d="M 0.886719 0 L 959.113281 0 L 959.113281 539 L 0.886719 539 Z M 0.886719 0 " fill-opacity="1" fill-rule="nonzero"/><path fill="#ffffff" d="M 0.886719 0 L 959.113281 0 L 959.113281 539 L 0.886719 539 Z M 0.886719 0 " fill-opacity="1" fill-rule="nonzero"/></g><g clip-path="url(#a0c602f985)"><path stroke-linecap="round" transform="matrix(0.0408418, 0, 0, -0.0408346, 247.667823, 537.519113)" fill="none" stroke-linejoin="round" d="M 6570.320316 13112.226693 C 6376.451211 12586.095687 6182.582106 12059.86902 6182.582106 11575.350194 C 6182.582106 11090.735707 6376.451211 10647.637739 6597.961249 10366.109821 C 6819.471288 10084.581902 7068.717902 9964.528372 7137.9637 9770.720842 C 7207.209498 9576.913311 7096.358835 9309.160459 7045.667851 9059.965682 C 6994.881223 8810.770906 7004.062986 8579.942884 6962.553765 8367.672938 C 6921.044543 8155.307332 6828.748694 7961.499801 6681.075335 7813.800479 C 6533.401977 7666.101156 6330.255465 7564.605702 6177.991225 7444.647832 C 6025.631341 7324.594303 5924.058085 7186.174018 5739.466387 7181.486669 C 5554.874688 7176.89498 5287.264547 7306.131888 5079.527154 7536.959909 C 4871.789761 7767.69227 4724.116402 8099.920086 4682.607181 8436.83525 C 4641.097959 8773.846075 4705.657232 9115.352928 4668.738892 9401.472535 C 4631.820553 9687.687803 4493.424601 9918.420164 4401.033108 9867.624607 C 4308.832902 9816.82905 4262.637156 9484.601234 4322.605547 9276.827317 C 4382.573938 9069.24472 4548.706467 8986.116021 4604.17962 8819.954283 C 4659.557129 8653.792545 4604.17962 8404.597769 4687.198062 7952.220763 C 4770.312148 7499.939418 4991.822186 6844.571505 4977.953898 6327.719536 C 4964.181253 5810.771907 4714.934639 5432.340223 4336.473835 5238.437032 C 3958.013032 5044.629502 3450.338039 5035.350464 3279.518986 5159.995682 C 3108.795576 5284.640901 3274.928104 5543.114715 3307.255562 5903.083984 C 3339.487377 6263.053252 3238.009764 6724.613635 3302.664681 7172.303292 C 3367.223953 7619.992948 3598.011398 8053.811878 3750.275638 8649.200857 C 3902.635522 9244.589835 3976.472202 10001.453203 4225.623173 10536.958907 C 4474.965431 11072.177631 4899.526337 11386.134352 5236.477919 11506.092221 C 5573.333858 11626.050091 5822.580473 11552.200429 6076.417969 11543.017052 C 6330.255465 11533.833674 6588.683843 11589.22092 6874.848797 11339.930483 C 7161.013751 11090.735707 7474.915282 10536.958907 7553.342843 9959.936684 C 7631.770404 9383.01012 7474.915282 8783.029452 7507.147097 8201.5112 C 7539.474555 7619.992948 7760.984593 7056.937111 7664.097862 6503.064651 C 7567.211131 5949.192192 7151.831988 5404.69443 7082.58619 5063.091917 C 7013.340393 4721.585064 7290.22794 4583.164779 7197.262587 4595.217962 C 7104.201591 4607.366805 6641.287695 4770.084777 6392.04108 5079.258488 C 6142.794466 5388.52786 6107.310776 5844.252971 6144.89862 6279.889445 C 6182.582106 6715.430258 6293.337125 7130.786772 6251.827904 7209.228122 C 6210.318683 7287.669472 6016.449578 7029.195658 5767.202963 6895.367062 C 5517.956349 6761.538466 5213.332224 6752.259428 4931.853795 6927.700204 C 4650.279723 7103.045319 4391.851345 7463.014588 4262.637156 7643.047052 C 4133.422967 7823.079516 4133.422967 7823.079516 3713.357299 7656.917778 C 3293.387274 7490.756041 2453.351581 7158.432565 1950.363114 6609.247455 C 1447.279003 6059.966684 1281.050831 5293.824278 1068.818199 4776.97231 C 856.489925 4260.024681 598.061547 3992.367489 390.324154 3724.614637 C 182.682404 3456.957445 25.731638 3189.300253 39.599927 2958.472231 C 53.468215 2727.73987 238.059913 2533.932339 413.469848 2307.696007 C 588.78414 2081.555334 754.916669 1823.17718 967.244944 1726.177754 C 1179.573219 1629.273989 1438.001596 1693.940273 1631.870701 1643.144715 C 1825.739806 1592.349158 1954.953995 1426.18742 2208.791492 1361.616797 C 2462.628988 1296.950513 2841.089791 1333.875344 2928.794759 1430.874769 C 3016.499726 1527.778535 2813.353215 1684.661235 2804.171451 1887.747803 C 2794.894045 2090.834372 2979.485743 2340.124809 3210.273188 2390.824706 C 3441.060633 2441.620263 3718.043824 2293.92094 3934.96298 2261.587798 C 4151.882137 2229.254657 4308.832902 2312.383356 4230.309698 2280.050214 C 4151.882137 2247.717072 3837.980606 2100.11341 3685.716366 1933.951672 C 3533.356482 1767.789934 3542.633889 1583.165781 3556.406533 1463.207911 C 3570.274822 1343.154382 3588.829635 1287.767136 3468.797209 1278.583758 C 3348.764784 1269.30472 3090.336406 1306.229551 2910.335589 1310.82124 C 2730.334772 1315.508589 2628.761516 1287.767136 2665.679856 1213.917474 C 2702.598196 1140.067813 2878.008131 1020.109944 3131.845627 812.336026 C 3385.683123 604.657769 3718.043824 309.354784 3902.635522 161.655462 C 4087.227221 13.956139 4124.14556 13.956139 5157.954715 101.676527 C 6191.763869 189.301255 8222.559482 364.64637 9251.777755 470.829173 C 10280.996028 577.011976 10308.732605 613.936807 10479.456015 1163.121917 C 10650.179425 1712.402688 10963.985312 2773.943738 11139.395248 3396.97851 C 11314.805183 4020.013282 11351.723522 4204.637435 11314.805183 4292.357823 C 11277.886843 4380.078211 11167.131824 4370.799173 10825.58936 4347.745069 C 10484.14254 4324.690965 9911.716988 4287.766134 9574.861049 4301.5412 C 9237.909467 4315.411927 9136.336211 4380.078211 9099.417872 4601.531534 C 9062.499532 4823.080518 9090.236108 5201.607862 9007.122022 5649.297518 C 8924.10358 6096.987175 8730.234475 6613.839143 8468.936796 6987.966119 C 8207.543474 7362.093095 7878.721578 7593.399417 7878.721578 7496.399991 C 7878.721578 7399.496226 8207.543474 6974.382373 8270.476809 6438.685348 C 8333.314501 5903.083984 8130.263633 5256.995108 8001.049444 4850.821971 C 7871.835255 4444.648834 7816.362102 4278.487096 7991.772038 4213.820813 C 8167.181973 4149.250189 8573.283709 4186.17502 8513.315318 4213.820813 C 8453.346927 4241.562266 7927.212765 4260.024681 7220.982142 4236.970577 C 6514.847163 4213.820813 5628.711368 4149.250189 5153.363833 4001.550867 C 4678.016299 3853.947204 4613.361383 3623.119183 4507.197245 2940.009816 C 4401.033108 2256.99611 4253.359749 1121.605398 4202.573121 692.378157 C 4151.882137 263.150916 4197.98224 540.087146 4105.68639 733.990336 C 4013.390541 927.797867 3782.603097 1038.572359 3722.634705 1126.197087 C 3662.570671 1213.917474 3773.421333 1278.583758 3898.044641 1301.637862 C 4022.572304 1324.691966 4161.0639 1306.229551 4253.359749 1490.853704 C 4345.655598 1675.477857 4391.851345 2063.092919 4341.064717 2367.770601 C 4290.278089 2672.352624 4142.60473 2893.901608 3893.358116 3018.546826 C 3644.111501 3143.096385 3293.387274 3170.837838 2933.38564 3092.300827 C 2573.384007 3013.859477 2204.20061 2829.330984 1881.117316 2663.169247 C 1558.034022 2497.007509 1281.050831 2349.308186 1262.687305 2460.082678 C 1244.228135 2570.85717 1484.197343 2940.009816 1862.658146 3087.709139 C 2241.11895 3235.408461 2757.975705 3161.5588 2827.221503 3198.48363 C 2896.467301 3235.408461 2518.006497 3383.107784 2268.759883 3563.140248 C 2019.608911 3743.172712 1899.576486 3955.442658 2010.331505 3992.367489 C 2121.086524 4029.29232 2462.628988 3890.776375 2642.629805 3715.431259 C 2822.630621 3540.086144 2841.089791 3327.720538 2864.139843 3673.91474 C 2887.285537 4020.013282 2914.926471 4924.671632 2831.908028 5510.781573 C 2748.793942 6096.987175 2554.924837 6364.644367 2361.055732 6632.301559 " stroke="#231f20" stroke-width="70.865997" stroke-opacity="1" stroke-miterlimit="22.926001"/></g></svg>